<svg width="256" height="256" viewBox="0 0 256 256" xmlns="http://www.w3.org/2000/svg" preserveAspectRatio="xMidYMid"><path d="M255.96 134.393c0-21.52-13.373-40.117-33.223-47.43a75.24 75.24 0 0 0 1.253-13.79c0-39.91-32.386-72.296-72.295-72.296-23.193 0-44.923 11.074-58.505 30.088-6.686-5.224-14.835-7.94-23.402-7.94-21.104 0-38.446 17.133-38.446 38.446 0 4.598.836 9.195 2.298 13.374C13.582 81.74 0 100.962 0 122.274c0 21.522 13.373 40.327 33.43 47.64-.834 4.388-1.252 8.985-1.252 13.79 0 39.7 32.386 72.087 72.086 72.087 23.402 0 44.924-11.282 58.505-30.087 6.685 5.223 15.043 8.15 23.61 8.15 21.104 0 38.446-17.135 38.446-38.447 0-4.597-.836-9.194-2.298-13.373 19.64-7.104 33.43-26.327 33.43-47.64z" fill="#FFF"/><path d="M100.085 110.364l57.043 26.12 57.67-50.566a64.312 64.312 0 0 0 1.252-12.746c0-35.52-28.834-64.355-64.355-64.355-21.313 0-41.162 10.447-53.072 27.998l-9.612 49.73 11.075 23.82z" fill="#F4BD19"/><path d="M40.953 170.75c-.835 4.18-1.253 8.567-1.253 12.955 0 35.52 29.043 64.564 64.564 64.564 21.522 0 41.372-10.657 53.49-28.21l9.403-49.728-12.746-24.238-57.25-26.118-56.207 50.774z" fill="#3CBEB1"/><path d="M40.536 71.918l39.073 9.194 8.774-44.506c-5.432-4.18-11.91-6.268-18.805-6.268-16.926 0-30.925 13.79-30.925 30.924 0 3.552.627 7.313 1.88 10.656z" fill="#E9478C"/><path d="M37.192 81.32c-17.55 5.642-29.67 22.567-29.67 40.954 0 17.97 11.074 34.06 27.79 40.327l54.953-49.728-10.03-21.522-43.043-10.03z" fill="#2C458F"/><path d="M167.784 219.852c5.432 4.18 11.91 6.478 18.596 6.478 16.925 0 30.924-13.79 30.924-30.924 0-3.76-.627-7.314-1.88-10.657l-39.073-9.194-8.566 44.296z" fill="#95C63D"/><path d="M175.724 165.317l43.043 10.03c17.55-5.85 29.67-22.566 29.67-40.954 0-17.97-11.074-33.85-27.79-40.326l-56.415 49.31 11.492 21.94z" fill="#176655"/></svg>